<?xml version="1.0" encoding="UTF-8"?>
<svg width="160px" height="204px" viewBox="0 0 160 204" version="1.1" xmlns="http://www.w3.org/2000/svg" xmlns:xlink="http://www.w3.org/1999/xlink">
    <!-- Generator: Sketch 52.1 (67048) - http://www.bohemiancoding.com/sketch -->
    <title>download_buttons</title>
    <desc>Created with Sketch.</desc>
    <defs>
        <rect id="path-1" x="0.2199" y="0.234" width="101.492" height="22.2914"></rect>
        <path d="M33.2809,6.986 C30.5236,6.986 28.2711,9.06 28.2711,11.922 C28.2711,14.76 30.5236,16.856 33.2809,16.856 C36.0441,16.856 38.2966,14.76 38.2966,11.922 C38.2966,9.06 36.0441,6.986 33.2809,6.986 Z M33.2809,14.912 C31.768,14.912 30.4664,13.678 30.4664,11.922 C30.4664,10.142 31.768,8.93 33.2809,8.93 C34.7938,8.93 36.1013,10.142 36.1013,11.922 C36.1013,13.678 34.7938,14.912 33.2809,14.912 Z M22.35,6.986 C19.5869,6.986 17.3402,9.06 17.3402,11.922 C17.3402,14.76 19.5869,16.856 22.35,16.856 C25.1117,16.856 27.3598,14.76 27.3598,11.922 C27.3598,9.06 25.1117,6.986 22.35,6.986 Z M22.35,14.912 C20.8356,14.912 19.5296,13.678 19.5296,11.922 C19.5296,10.142 20.8356,8.93 22.35,8.93 C23.863,8.93 25.1646,10.142 25.1646,11.922 C25.1646,13.678 23.863,14.912 22.35,14.912 Z M9.3427,8.499 L9.3427,10.596 L14.4098,10.596 C14.2616,11.768 13.8654,12.629 13.2578,13.23 C12.5182,13.955 11.3663,14.76 9.3427,14.76 C6.2244,14.76 3.7826,12.273 3.7826,9.191 C3.7826,6.109 6.2244,3.621 9.3427,3.621 C11.0288,3.621 12.2556,4.272 13.161,5.117 L14.6563,3.639 C13.3899,2.444 11.7053,1.525 9.3427,1.525 C5.0666,1.525 1.4729,4.964 1.4729,9.191 C1.4729,13.417 5.0666,16.856 9.3427,16.856 C11.6539,16.856 13.3899,16.107 14.7546,14.703 C16.1531,13.321 16.5889,11.378 16.5889,9.808 C16.5889,9.321 16.5478,8.873 16.4744,8.499 L9.3427,8.499 Z M62.531,10.125 C62.119,9.021 60.847,6.986 58.255,6.986 C55.687,6.986 53.549,8.986 53.549,11.922 C53.549,14.686 55.665,16.856 58.502,16.856 C60.795,16.856 62.119,15.474 62.663,14.669 L60.961,13.548 C60.393,14.368 59.62,14.912 58.502,14.912 C57.391,14.912 56.594,14.409 56.083,13.417 L62.762,10.686 L62.531,10.125 Z M55.722,11.768 C55.665,9.865 57.218,8.89 58.33,8.89 C59.202,8.89 59.941,9.321 60.188,9.938 L55.722,11.768 Z M50.2943,16.556 L52.49,16.556 L52.49,2.052 L50.2943,2.052 L50.2943,16.556 Z M46.6991,8.085 L46.6257,8.085 C46.1327,7.508 45.1921,6.986 44.0005,6.986 C41.5,6.986 39.2138,9.156 39.2138,11.938 C39.2138,14.703 41.5,16.856 44.0005,16.856 C45.1921,16.856 46.1327,16.329 46.6257,15.735 L46.6991,15.735 L46.6991,16.442 C46.6991,18.329 45.6793,19.343 44.0343,19.343 C42.693,19.343 41.861,18.386 41.5176,17.581 L39.6085,18.369 C40.1588,19.677 41.6159,21.287 44.0343,21.287 C46.6081,21.287 48.7799,19.79 48.7799,16.148 L48.7799,7.286 L46.6991,7.286 L46.6991,8.085 Z M44.1883,14.912 C42.6754,14.912 41.409,13.661 41.409,11.938 C41.409,10.199 42.6754,8.93 44.1883,8.93 C45.6793,8.93 46.8547,10.199 46.8547,11.938 C46.8547,13.661 45.6793,14.912 44.1883,14.912 Z M72.809,2.052 L67.559,2.052 L67.559,16.556 L69.748,16.556 L69.748,11.06 L72.809,11.06 C75.241,11.06 77.625,9.321 77.625,6.555 C77.625,3.791 75.235,2.052 72.809,2.052 Z M72.866,9.043 L69.748,9.043 L69.748,4.069 L72.866,4.069 C74.501,4.069 75.434,5.411 75.434,6.555 C75.434,7.678 74.501,9.043 72.866,9.043 Z M86.4,6.959 C84.819,6.959 83.174,7.649 82.497,9.179 L84.44,9.984 C84.858,9.179 85.627,8.918 86.44,8.918 C87.576,8.918 88.728,9.592 88.745,10.783 L88.745,10.935 C88.349,10.709 87.501,10.374 86.458,10.374 C84.365,10.374 82.233,11.513 82.233,13.637 C82.233,15.581 83.947,16.833 85.874,16.833 C87.347,16.833 88.16,16.176 88.671,15.411 L88.745,15.411 L88.745,16.532 L90.86,16.532 L90.86,10.969 C90.86,8.397 88.917,6.959 86.4,6.959 Z M86.136,14.906 C85.42,14.906 84.422,14.556 84.422,13.678 C84.422,12.555 85.667,12.125 86.744,12.125 C87.708,12.125 88.16,12.335 88.745,12.612 C88.574,13.955 87.404,14.906 86.136,14.906 Z M98.564,7.276 L96.047,13.563 L95.973,13.563 L93.371,7.276 L91.01,7.276 L94.919,16.062 L92.688,20.952 L94.976,20.952 L101,7.276 L98.564,7.276 Z M78.829,16.556 L81.024,16.556 L81.024,2.052 L78.829,2.052 L78.829,16.556 Z" id="path-3"></path>
        <linearGradient x1="91.4894318%" y1="95.0388503%" x2="-36.7983739%" y2="27.3086708%" id="linearGradient-5">
            <stop stop-color="#00A0FF" offset="0%"></stop>
            <stop stop-color="#00A1FF" offset="0.66%"></stop>
            <stop stop-color="#00BEFF" offset="26.01%"></stop>
            <stop stop-color="#00D2FF" offset="51.22%"></stop>
            <stop stop-color="#00DFFF" offset="76.04%"></stop>
            <stop stop-color="#00E3FF" offset="100%"></stop>
        </linearGradient>
        <linearGradient x1="107.585091%" y1="49.9798509%" x2="-130.492905%" y2="49.9798509%" id="linearGradient-6">
            <stop stop-color="#FFE000" offset="0%"></stop>
            <stop stop-color="#FFBD00" offset="40.87%"></stop>
            <stop stop-color="#FFA500" offset="77.54%"></stop>
            <stop stop-color="#FF9C00" offset="100%"></stop>
        </linearGradient>
        <linearGradient x1="86.2375394%" y1="-17.8502305%" x2="-48.5352471%" y2="-196.857756%" id="linearGradient-7">
            <stop stop-color="#FF3A44" offset="0%"></stop>
            <stop stop-color="#C31162" offset="100%"></stop>
        </linearGradient>
        <linearGradient x1="-18.8010739%" y1="254.166592%" x2="41.3812992%" y2="174.21123%" id="linearGradient-8">
            <stop stop-color="#32A071" offset="0%"></stop>
            <stop stop-color="#2DA771" offset="6.85%"></stop>
            <stop stop-color="#15CF74" offset="47.62%"></stop>
            <stop stop-color="#06E775" offset="80.09%"></stop>
            <stop stop-color="#00F076" offset="100%"></stop>
        </linearGradient>
    </defs>
    <g id="Page-1" stroke="none" stroke-width="1" fill="none" fill-rule="evenodd">
        <g id="download_buttons">
            <g id="Group" transform="translate(0.000000, 151.000000)">
                <rect id="Rectangle" fill="#000000" x="0" y="0" width="160" height="50" rx="5"></rect>
                <path d="M26.5,12 C33.95605,12 40,18.0444 40,25.5 C40,32.95605 33.95605,39 26.5,39 C19.04395,39 13,32.95605 13,25.5 C13,18.0444 19.04395,12 26.5,12 Z M27.7957902,26.3251712 L27.2358808,25.4999673 L27.7957254,24.6746979 L33,17 L31.528044,17 L27.9319948,22.3023674 L26.5,24.4142036 L25.0679404,22.3024328 L21.4718912,17.0000655 L20,17 L25.2042098,24.6747633 L25.7641192,25.4999673 L25.2042746,26.3252367 L20,34 L21.471956,34 L25.0680052,28.6975672 L26.5,26.585731 L27.9320596,28.6975017 L31.5281088,33.9999345 L33,34 L27.7957902,26.3251712 Z" id="Combined-Shape" fill="#FFFFFF"></path>
                <g transform="translate(50.000000, 9.000000)" fill="#FFFFFF">
                    <path d="M3.27490234,16.9619141 L3.33984375,18.0102539 C4.0449254,17.1876586 5.0097595,16.7763672 6.234375,16.7763672 C7.57650411,16.7763672 8.49495195,17.2897084 8.98974609,18.3164062 C9.71956745,17.2897084 10.7462499,16.7763672 12.0698242,16.7763672 C13.1769261,16.7763672 14.0010552,17.0825165 14.5422363,17.6948242 C15.0834174,18.307132 15.3601887,19.2101177 15.3725586,20.4038086 L15.3725586,27 L13.1181641,27 L13.1181641,20.46875 C13.1181641,19.8317025 12.9790053,19.3647476 12.7006836,19.0678711 C12.4223619,18.7709946 11.9615918,18.6225586 11.3183594,18.6225586 C10.8050105,18.6225586 10.385988,18.7601711 10.0612793,19.0354004 C9.73657064,19.3106296 9.50927799,19.6708962 9.37939453,20.1162109 L9.38867188,27 L7.13427734,27 L7.13427734,20.3945312 C7.10335271,19.2132102 6.5003314,18.6225586 5.32519531,18.6225586 C4.42219601,18.6225586 3.78206569,18.9905562 3.40478516,19.7265625 L3.40478516,27 L1.15039062,27 L1.15039062,16.9619141 L3.27490234,16.9619141 Z M24.318392,27 C24.2194332,26.8082673 24.1328455,26.4959332 24.0586264,26.0629883 C23.3411748,26.8113644 22.4629284,27.1855469 21.4238607,27.1855469 C20.4157177,27.1855469 19.5931347,26.8979521 18.9560873,26.3227539 C18.3190398,25.7475557 18.0005209,25.0362998 18.0005209,24.1889648 C18.0005209,23.1189725 18.3978965,22.2979358 19.1926596,21.7258301 C19.9874226,21.1537244 21.1238859,20.8676758 22.6020834,20.8676758 L23.9844076,20.8676758 L23.9844076,20.2089844 C23.9844076,19.6894505 23.839064,19.2735204 23.5483724,18.9611816 C23.2576809,18.6488428 22.8154653,18.4926758 22.2217123,18.4926758 C21.7083634,18.4926758 21.2877947,18.6210111 20.9599935,18.8776855 C20.6321924,19.13436 20.4682943,19.46061 20.4682943,19.8564453 L18.2138998,19.8564453 C18.2138998,19.3059868 18.3963524,18.7910994 18.7612631,18.3117676 C19.1261738,17.8324358 19.6225067,17.4567071 20.2502767,17.1845703 C20.8780468,16.9124335 21.5784793,16.7763672 22.3515951,16.7763672 C23.5267312,16.7763672 24.4637335,17.071693 25.1626303,17.6623535 C25.861527,18.253014 26.2202474,19.083328 26.2388021,20.1533203 L26.2388021,24.6806641 C26.2388021,25.5836634 26.3655912,26.3041965 26.6191732,26.8422852 L26.6191732,27 L24.318392,27 Z M21.8413412,25.3764648 C22.2866559,25.3764648 22.7056784,25.2682302 23.0984213,25.0517578 C23.4911641,24.8352854 23.7864899,24.5445982 23.9844076,24.1796875 L23.9844076,22.2871094 L22.7690756,22.2871094 C21.9341105,22.2871094 21.3063498,22.432453 20.8857748,22.7231445 C20.4651998,23.0138361 20.2549154,23.4251275 20.2549154,23.9570312 C20.2549154,24.3899761 20.3987128,24.7347806 20.6863119,24.9914551 C20.973911,25.2481295 21.3589169,25.3764648 21.8413412,25.3764648 Z M33.3569988,25.3857422 C33.9198271,25.3857422 34.3867821,25.2218441 34.7578777,24.894043 C35.1289733,24.5662419 35.326888,24.1611352 35.3516277,23.6787109 L37.4761394,23.6787109 C37.4513997,24.3033885 37.2565774,24.8863091 36.8916668,25.4274902 C36.5267561,25.9686713 36.0319694,26.3969711 35.4072918,26.7124023 C34.7826142,27.0278336 34.1084673,27.1855469 33.3848308,27.1855469 C31.9808525,27.1855469 30.8675823,26.7309616 30.0449871,25.8217773 C29.2223918,24.9125931 28.8111004,23.6570718 28.8111004,22.0551758 L28.8111004,21.8232422 C28.8111004,20.2955653 29.2192994,19.0725144 30.0357097,18.1540527 C30.8521201,17.2355911 31.9653902,16.7763672 33.3755535,16.7763672 C34.5692444,16.7763672 35.5418095,17.1242641 36.2932781,17.8200684 C37.0447467,18.5158726 37.4390299,19.4296818 37.4761394,20.5615234 L35.3516277,20.5615234 C35.326888,19.9863252 35.1305195,19.5131854 34.7625164,19.1420898 C34.3945132,18.7709942 33.9260121,18.5854492 33.3569988,18.5854492 C32.6271774,18.5854492 32.0643576,18.8498509 31.6685222,19.3786621 C31.2726869,19.9074733 31.0716798,20.7099556 31.0654949,21.7861328 L31.0654949,22.1479492 C31.0654949,23.2364963 31.2618634,24.0482558 31.6546062,24.583252 C32.0473491,25.1182481 32.6148076,25.3857422 33.3569988,25.3857422 Z M50.8101564,20.5986328 C50.8101564,21.9222071 50.5813175,23.0834097 50.123633,24.0822754 C49.6659484,25.0811411 49.0119022,25.8480605 48.1614748,26.3830566 C47.3110473,26.9180528 46.3322974,27.1855469 45.2251955,27.1855469 C44.1304634,27.1855469 43.1548059,26.9180528 42.2981935,26.3830566 C41.4415812,25.8480605 40.7798039,25.0857797 40.312842,24.0961914 C39.84588,23.1066031 39.6093101,21.9655013 39.6031252,20.6728516 L39.6031252,19.9121094 C39.6031252,18.59472 39.8366026,17.4319712 40.3035646,16.4238281 C40.7705266,15.4156851 41.4292114,14.644127 42.2796388,14.1091309 C43.1300663,13.5741347 44.1057238,13.3066406 45.2066408,13.3066406 C46.3075577,13.3066406 47.2832153,13.5710423 48.1336427,14.0998535 C48.9840702,14.6286648 49.6412088,15.3893993 50.1050783,16.3820801 C50.5689478,17.3747608 50.8039715,18.5297786 50.8101564,19.847168 L50.8101564,20.5986328 Z M48.4629884,19.8935547 C48.4629884,18.3968024 48.1800323,17.2495157 47.6141115,16.4516602 C47.0481907,15.6538046 46.2457085,15.2548828 45.2066408,15.2548828 C44.1923128,15.2548828 43.3991078,15.6522584 42.8270021,16.4470215 C42.2548964,17.2417846 41.962663,18.3658781 41.9502931,19.8193359 L41.9502931,20.5986328 C41.9502931,22.0830152 42.2394341,23.2303019 42.8177248,24.0405273 C43.3960154,24.8507527 44.1984976,25.2558594 45.2251955,25.2558594 C46.2642632,25.2558594 47.063653,24.86003 47.6233888,24.0683594 C48.1831247,23.2766887 48.4629884,22.1201248 48.4629884,20.5986328 L48.4629884,19.8935547 Z M60.841439,23.5209961 C60.841439,22.9272431 60.6327009,22.4695654 60.2152183,22.1479492 C59.7977357,21.826333 59.0447322,21.5016292 57.9561851,21.1738281 C56.867638,20.846027 56.0017612,20.4811218 55.3585289,20.0791016 C54.1277284,19.3059857 53.5123374,18.2978578 53.5123374,17.0546875 C53.5123374,15.9661404 53.9560993,15.0693395 54.8436363,14.3642578 C55.7311733,13.6591762 56.8830986,13.3066406 58.2994468,13.3066406 C59.2395557,13.3066406 60.0776007,13.479816 60.813607,13.8261719 C61.5496133,14.1725278 62.1278952,14.6657683 62.5484703,15.3059082 C62.9690453,15.9460481 63.1793296,16.6557578 63.1793296,17.4350586 L60.841439,17.4350586 C60.841439,16.7299769 60.6203312,16.1779805 60.1781089,15.7790527 C59.7358867,15.380125 59.1034874,15.1806641 58.2808921,15.1806641 C57.5139612,15.1806641 56.9186709,15.3445622 56.4950035,15.6723633 C56.071336,16.0001644 55.8595054,16.4578421 55.8595054,17.0454102 C55.8595054,17.5402043 56.0883443,17.953042 56.5460289,18.2839355 C57.0037134,18.6148291 57.7582632,18.9364405 58.8097007,19.2487793 C59.8611383,19.5611181 60.7053681,19.9167461 61.3424156,20.3156738 C61.979463,20.7146016 62.446418,21.1722793 62.7432945,21.6887207 C63.040171,22.2051621 63.188607,22.8097296 63.188607,23.5024414 C63.188607,24.6280981 62.7572148,25.5233528 61.8944175,26.1882324 C61.0316202,26.853112 59.8611404,27.1855469 58.3829429,27.1855469 C57.4057245,27.1855469 56.5073774,27.0046405 55.6878746,26.6428223 C54.8683718,26.2810041 54.2313339,25.7815787 53.7767417,25.1445312 C53.3221496,24.5074838 53.094857,23.7653037 53.094857,22.9179688 L55.4420249,22.9179688 C55.4420249,23.6848997 55.6956031,24.2786437 56.2027671,24.6992188 C56.7099311,25.1197938 57.4366491,25.3300781 58.3829429,25.3300781 C59.1993532,25.3300781 59.813198,25.1646338 60.2244956,24.8337402 C60.6357933,24.5028467 60.841439,24.0652696 60.841439,23.5209961 Z" id="macOS"></path>
                    <path d="M1.61425781,8 L1.61425781,1.95703125 L3.39892578,1.95703125 C3.93294538,1.95703125 4.4067769,2.07600792 4.82043457,2.31396484 C5.23409224,2.55192176 5.55436084,2.88948349 5.78125,3.32666016 C6.00813916,3.76383682 6.12158203,4.26464562 6.12158203,4.82910156 L6.12158203,5.13208008 C6.12158203,5.70483685 6.00744743,6.20841254 5.7791748,6.64282227 C5.55090218,7.07723199 5.2257915,7.41202682 4.80383301,7.6472168 C4.38187452,7.88240677 3.89835885,8 3.35327148,8 L1.61425781,8 Z M2.66430664,2.80371094 L2.66430664,7.16162109 L3.34912109,7.16162109 C3.89974234,7.16162109 4.32238622,6.98938161 4.61706543,6.64489746 C4.91174464,6.30041332 5.06184893,5.80583005 5.06738281,5.16113281 L5.06738281,4.82495117 C5.06738281,4.16918617 4.92488749,3.66837738 4.63989258,3.32250977 C4.35489766,2.97664215 3.9412462,2.80371094 3.39892578,2.80371094 L2.66430664,2.80371094 Z M12.7902344,5.13623047 C12.7902344,5.72835583 12.6878591,6.24784119 12.4831055,6.69470215 C12.2783519,7.14156311 11.9857522,7.48465863 11.6052979,7.72399902 C11.2248435,7.96333941 10.7869817,8.08300781 10.2916992,8.08300781 C9.80195069,8.08300781 9.36547231,7.96333941 8.98225099,7.72399902 C8.59902967,7.48465863 8.30297143,7.14363828 8.09406739,6.70092773 C7.88516336,6.25821719 7.77932945,5.74772425 7.77656251,5.16943359 L7.77656251,4.82910156 C7.77656251,4.23974315 7.88101296,3.71956606 8.089917,3.26855469 C8.29882104,2.81754332 8.59349583,2.47237262 8.97395021,2.23303223 C9.35440458,1.99369184 9.79088297,1.87402344 10.2833984,1.87402344 C10.7759139,1.87402344 11.2123923,1.99230839 11.5928467,2.22888184 C11.9733011,2.46545528 12.2672841,2.80578391 12.4748047,3.24987793 C12.6823253,3.69397195 12.7874674,4.21069041 12.7902344,4.80004883 L12.7902344,5.13623047 Z M11.7401856,4.82080078 C11.7401856,4.15120108 11.6135999,3.63794124 11.3604248,3.28100586 C11.1072497,2.92407048 10.7482445,2.74560547 10.2833984,2.74560547 C9.82962014,2.74560547 9.47476529,2.92337876 9.21882325,3.27893066 C8.96288122,3.63448257 8.83214522,4.13736654 8.82661134,4.78759766 L8.82661134,5.13623047 C8.82661134,5.80029629 8.95596389,6.31355613 9.21467286,6.67602539 C9.47338184,7.03849465 9.83238704,7.21972656 10.2916992,7.21972656 C10.7565453,7.21972656 11.1141671,7.042645 11.3645752,6.68847656 C11.6149834,6.33430812 11.7401856,5.81689793 11.7401856,5.13623047 L11.7401856,4.82080078 Z M19.3758789,6.50585938 L20.3055664,1.95703125 L21.3473145,1.95703125 L19.9527832,8 L18.9483887,8 L17.7987305,3.58813477 L16.6241699,8 L15.615625,8 L14.2210938,1.95703125 L15.2628418,1.95703125 L16.2008301,6.49755859 L17.3546387,1.95703125 L18.2345215,1.95703125 L19.3758789,6.50585938 Z M27.7088379,8 L26.6587891,8 L23.9651856,3.71264648 L23.9651856,8 L22.9151368,8 L22.9151368,1.95703125 L23.9651856,1.95703125 L26.6670899,6.26098633 L26.6670899,1.95703125 L27.7088379,1.95703125 L27.7088379,8 Z M30.7998536,7.16162109 L33.5432618,7.16162109 L33.5432618,8 L29.7498047,8 L29.7498047,1.95703125 L30.7998536,1.95703125 L30.7998536,7.16162109 Z M39.7055665,5.13623047 C39.7055665,5.72835583 39.6031912,6.24784119 39.3984376,6.69470215 C39.1936839,7.14156311 38.9010843,7.48465863 38.5206299,7.72399902 C38.1401756,7.96333941 37.7023137,8.08300781 37.2070313,8.08300781 C36.7172828,8.08300781 36.2808044,7.96333941 35.8975831,7.72399902 C35.5143618,7.48465863 35.2183035,7.14363828 35.0093995,6.70092773 C34.8004954,6.25821719 34.6946615,5.74772425 34.6918946,5.16943359 L34.6918946,4.82910156 C34.6918946,4.23974315 34.796345,3.71956606 35.0052491,3.26855469 C35.2141531,2.81754332 35.5088279,2.47237262 35.8892823,2.23303223 C36.2697367,1.99369184 36.706215,1.87402344 37.1987305,1.87402344 C37.691246,1.87402344 38.1277244,1.99230839 38.5081788,2.22888184 C38.8886331,2.46545528 39.1826162,2.80578391 39.3901368,3.24987793 C39.5976573,3.69397195 39.7027995,4.21069041 39.7055665,4.80004883 L39.7055665,5.13623047 Z M38.6555176,4.82080078 C38.6555176,4.15120108 38.528932,3.63794124 38.2757569,3.28100586 C38.0225818,2.92407048 37.6635766,2.74560547 37.1987305,2.74560547 C36.7449522,2.74560547 36.3900974,2.92337876 36.1341553,3.27893066 C35.8782133,3.63448257 35.7474773,4.13736654 35.7419434,4.78759766 L35.7419434,5.13623047 C35.7419434,5.80029629 35.871296,6.31355613 36.1300049,6.67602539 C36.3887139,7.03849465 36.7477191,7.21972656 37.2070313,7.21972656 C37.6718774,7.21972656 38.0294991,7.042645 38.2799073,6.68847656 C38.5303154,6.33430812 38.6555176,5.81689793 38.6555176,5.13623047 L38.6555176,4.82080078 Z M44.8468751,6.59301758 L42.5060548,6.59301758 L42.0163087,8 L40.9247559,8 L43.2074708,1.95703125 L44.1496094,1.95703125 L46.4364747,8 L45.3407716,8 L44.8468751,6.59301758 Z M42.8007325,5.74633789 L44.5521973,5.74633789 L43.6764649,3.23950195 L42.8007325,5.74633789 Z M47.9212891,8 L47.9212891,1.95703125 L49.7059571,1.95703125 C50.2399767,1.95703125 50.7138082,2.07600792 51.1274659,2.31396484 C51.5411236,2.55192176 51.8613922,2.88948349 52.0882813,3.32666016 C52.3151705,3.76383682 52.4286134,4.26464562 52.4286134,4.82910156 L52.4286134,5.13208008 C52.4286134,5.70483685 52.3144788,6.20841254 52.0862061,6.64282227 C51.8579335,7.07723199 51.5328228,7.41202682 51.1108643,7.6472168 C50.6889059,7.88240677 50.2053902,8 49.6603028,8 L47.9212891,8 Z M48.971338,2.80371094 L48.971338,7.16162109 L49.6561524,7.16162109 C50.2067737,7.16162109 50.6294176,6.98938161 50.9240968,6.64489746 C51.218776,6.30041332 51.3688803,5.80583005 51.3744141,5.16113281 L51.3744141,4.82495117 C51.3744141,4.16918617 51.2319188,3.66837738 50.9469239,3.32250977 C50.661929,2.97664215 50.2482775,2.80371094 49.7059571,2.80371094 L48.971338,2.80371094 Z M60.6733888,5.43920898 L58.2412599,5.43920898 L58.2412599,8 L57.191211,8 L57.191211,1.95703125 L61.0303224,1.95703125 L61.0303224,2.80371094 L58.2412599,2.80371094 L58.2412599,4.60083008 L60.6733888,4.60083008 L60.6733888,5.43920898 Z M67.4831544,5.13623047 C67.4831544,5.72835583 67.3807791,6.24784119 67.1760255,6.69470215 C66.9712719,7.14156311 66.6786723,7.48465863 66.2982179,7.72399902 C65.9177635,7.96333941 65.4799017,8.08300781 64.9846193,8.08300781 C64.4948707,8.08300781 64.0583923,7.96333941 63.675171,7.72399902 C63.2919497,7.48465863 62.9958915,7.14363828 62.7869874,6.70092773 C62.5780834,6.25821719 62.4722495,5.74772425 62.4694825,5.16943359 L62.4694825,4.82910156 C62.4694825,4.23974315 62.573933,3.71956606 62.782837,3.26855469 C62.9917411,2.81754332 63.2864159,2.47237262 63.6668702,2.23303223 C64.0473246,1.99369184 64.483803,1.87402344 64.9763185,1.87402344 C65.468834,1.87402344 65.9053123,1.99230839 66.2857667,2.22888184 C66.6662211,2.46545528 66.9602042,2.80578391 67.1677247,3.24987793 C67.3752453,3.69397195 67.4803875,4.21069041 67.4831544,4.80004883 L67.4831544,5.13623047 Z M66.4331056,4.82080078 C66.4331056,4.15120108 66.3065199,3.63794124 66.0533448,3.28100586 C65.8001698,2.92407048 65.4411646,2.74560547 64.9763185,2.74560547 C64.5225402,2.74560547 64.1676853,2.92337876 63.9117433,3.27893066 C63.6558012,3.63448257 63.5250653,4.13736654 63.5195314,4.78759766 L63.5195314,5.13623047 C63.5195314,5.80029629 63.6488839,6.31355613 63.9075929,6.67602539 C64.1663019,7.03849465 64.5253071,7.21972656 64.9846193,7.21972656 C65.4494653,7.21972656 65.8070871,7.042645 66.0574952,6.68847656 C66.3079034,6.33430812 66.4331056,5.81689793 66.4331056,5.13623047 L66.4331056,4.82080078 Z M71.5495118,5.67163086 L70.3791017,5.67163086 L70.3791017,8 L69.3290529,8 L69.3290529,1.95703125 L71.4540529,1.95703125 C72.151322,1.95703125 72.6894839,2.11336107 73.0685548,2.42602539 C73.4476257,2.73868971 73.6371583,3.19107777 73.6371583,3.78320312 C73.6371583,4.1871765 73.5396251,4.52542995 73.3445558,4.79797363 C73.1494865,5.07051731 72.8776386,5.28010994 72.529004,5.42675781 L73.8861818,7.94604492 L73.8861818,8 L72.7614259,8 L71.5495118,5.67163086 Z M70.3791017,4.82910156 L71.4582033,4.82910156 C71.8123717,4.82910156 72.0890616,4.73986906 72.2882814,4.56140137 C72.4875011,4.38293368 72.5871095,4.1387548 72.5871095,3.82885742 C72.5871095,3.50512533 72.4951101,3.25472094 72.3111085,3.07763672 C72.127107,2.9005525 71.8524922,2.80924482 71.487256,2.80371094 L70.3791017,2.80371094 L70.3791017,4.82910156 Z" id="DOWNLOAD-FOR"></path>
                </g>
            </g>
            <g id="Group" transform="translate(0.000000, 100.000000)">
                <rect id="Rectangle" fill="#000000" x="0" y="0" width="160" height="50" rx="5"></rect>
                <path d="M81.2809,26.986 C78.5236,26.986 76.2711,29.06 76.2711,31.922 C76.2711,34.76 78.5236,36.856 81.2809,36.856 C84.0441,36.856 86.2966,34.76 86.2966,31.922 C86.2966,29.06 84.0441,26.986 81.2809,26.986 Z M81.2809,34.912 C79.768,34.912 78.4664,33.678 78.4664,31.922 C78.4664,30.142 79.768,28.93 81.2809,28.93 C82.7938,28.93 84.1013,30.142 84.1013,31.922 C84.1013,33.678 82.7938,34.912 81.2809,34.912 Z M70.35,26.986 C67.5869,26.986 65.3402,29.06 65.3402,31.922 C65.3402,34.76 67.5869,36.856 70.35,36.856 C73.1117,36.856 75.3598,34.76 75.3598,31.922 C75.3598,29.06 73.1117,26.986 70.35,26.986 Z M70.35,34.912 C68.8356,34.912 67.5296,33.678 67.5296,31.922 C67.5296,30.142 68.8356,28.93 70.35,28.93 C71.863,28.93 73.1646,30.142 73.1646,31.922 C73.1646,33.678 71.863,34.912 70.35,34.912 Z M57.3427,28.499 L57.3427,30.596 L62.4098,30.596 C62.2616,31.768 61.8654,32.629 61.2578,33.23 C60.5182,33.955 59.3663,34.76 57.3427,34.76 C54.2244,34.76 51.7826,32.273 51.7826,29.191 C51.7826,26.109 54.2244,23.621 57.3427,23.621 C59.0288,23.621 60.2556,24.272 61.161,25.117 L62.6563,23.639 C61.3899,22.444 59.7053,21.525 57.3427,21.525 C53.0666,21.525 49.4729,24.964 49.4729,29.191 C49.4729,33.417 53.0666,36.856 57.3427,36.856 C59.6539,36.856 61.3899,36.107 62.7546,34.703 C64.1531,33.321 64.5889,31.378 64.5889,29.808 C64.5889,29.321 64.5478,28.873 64.4744,28.499 L57.3427,28.499 Z M110.531,30.125 C110.119,29.021 108.847,26.986 106.255,26.986 C103.687,26.986 101.549,28.986 101.549,31.922 C101.549,34.686 103.665,36.856 106.502,36.856 C108.795,36.856 110.119,35.474 110.663,34.669 L108.961,33.548 C108.393,34.368 107.62,34.912 106.502,34.912 C105.391,34.912 104.594,34.409 104.083,33.417 L110.762,30.686 L110.531,30.125 Z M103.722,31.768 C103.665,29.865 105.218,28.89 106.33,28.89 C107.202,28.89 107.941,29.321 108.188,29.938 L103.722,31.768 Z M98.2943,36.556 L100.49,36.556 L100.49,22.052 L98.2943,22.052 L98.2943,36.556 Z M94.6991,28.085 L94.6257,28.085 C94.1327,27.508 93.1921,26.986 92.0005,26.986 C89.5,26.986 87.2138,29.156 87.2138,31.938 C87.2138,34.703 89.5,36.856 92.0005,36.856 C93.1921,36.856 94.1327,36.329 94.6257,35.735 L94.6991,35.735 L94.6991,36.442 C94.6991,38.329 93.6793,39.343 92.0343,39.343 C90.693,39.343 89.861,38.386 89.5176,37.581 L87.6085,38.369 C88.1588,39.677 89.6159,41.287 92.0343,41.287 C94.6081,41.287 96.7799,39.79 96.7799,36.148 L96.7799,27.286 L94.6991,27.286 L94.6991,28.085 Z M92.1883,34.912 C90.6754,34.912 89.409,33.661 89.409,31.938 C89.409,30.199 90.6754,28.93 92.1883,28.93 C93.6793,28.93 94.8547,30.199 94.8547,31.938 C94.8547,33.661 93.6793,34.912 92.1883,34.912 Z M120.809,22.052 L115.559,22.052 L115.559,36.556 L117.748,36.556 L117.748,31.06 L120.809,31.06 C123.241,31.06 125.625,29.321 125.625,26.555 C125.625,23.791 123.235,22.052 120.809,22.052 Z M120.866,29.043 L117.748,29.043 L117.748,24.069 L120.866,24.069 C122.501,24.069 123.434,25.411 123.434,26.555 C123.434,27.678 122.501,29.043 120.866,29.043 Z M134.4,26.959 C132.819,26.959 131.174,27.649 130.497,29.179 L132.44,29.984 C132.858,29.179 133.627,28.918 134.44,28.918 C135.576,28.918 136.728,29.592 136.745,30.783 L136.745,30.935 C136.349,30.709 135.501,30.374 134.458,30.374 C132.365,30.374 130.233,31.513 130.233,33.637 C130.233,35.581 131.947,36.833 133.874,36.833 C135.347,36.833 136.16,36.176 136.671,35.411 L136.745,35.411 L136.745,36.532 L138.86,36.532 L138.86,30.969 C138.86,28.397 136.917,26.959 134.4,26.959 Z M134.136,34.906 C133.42,34.906 132.422,34.556 132.422,33.678 C132.422,32.555 133.667,32.125 134.744,32.125 C135.708,32.125 136.16,32.335 136.745,32.612 C136.574,33.955 135.404,34.906 134.136,34.906 Z M146.564,27.276 L144.047,33.563 L143.973,33.563 L141.371,27.276 L139.01,27.276 L142.919,36.062 L140.688,40.952 L142.976,40.952 L149,27.276 L146.564,27.276 Z M126.829,36.556 L129.024,36.556 L129.024,22.052 L126.829,22.052 L126.829,36.556 Z" id="Shape" fill="#FFFFFF" fill-rule="nonzero"></path>
                <g id="Clipped" transform="translate(48.000000, 20.000000)">
                    <mask id="mask-2" fill="white">
                        <use xlink:href="#path-1"></use>
                    </mask>
                    <g id="Rectangle"></g>
                    <path d="M33.2809,6.986 C30.5236,6.986 28.2711,9.06 28.2711,11.922 C28.2711,14.76 30.5236,16.856 33.2809,16.856 C36.0441,16.856 38.2966,14.76 38.2966,11.922 C38.2966,9.06 36.0441,6.986 33.2809,6.986 Z M33.2809,14.912 C31.768,14.912 30.4664,13.678 30.4664,11.922 C30.4664,10.142 31.768,8.93 33.2809,8.93 C34.7938,8.93 36.1013,10.142 36.1013,11.922 C36.1013,13.678 34.7938,14.912 33.2809,14.912 Z M22.35,6.986 C19.5869,6.986 17.3402,9.06 17.3402,11.922 C17.3402,14.76 19.5869,16.856 22.35,16.856 C25.1117,16.856 27.3598,14.76 27.3598,11.922 C27.3598,9.06 25.1117,6.986 22.35,6.986 Z M22.35,14.912 C20.8356,14.912 19.5296,13.678 19.5296,11.922 C19.5296,10.142 20.8356,8.93 22.35,8.93 C23.863,8.93 25.1646,10.142 25.1646,11.922 C25.1646,13.678 23.863,14.912 22.35,14.912 Z M9.3427,8.499 L9.3427,10.596 L14.4098,10.596 C14.2616,11.768 13.8654,12.629 13.2578,13.23 C12.5182,13.955 11.3663,14.76 9.3427,14.76 C6.2244,14.76 3.7826,12.273 3.7826,9.191 C3.7826,6.109 6.2244,3.621 9.3427,3.621 C11.0288,3.621 12.2556,4.272 13.161,5.117 L14.6563,3.639 C13.3899,2.444 11.7053,1.525 9.3427,1.525 C5.0666,1.525 1.4729,4.964 1.4729,9.191 C1.4729,13.417 5.0666,16.856 9.3427,16.856 C11.6539,16.856 13.3899,16.107 14.7546,14.703 C16.1531,13.321 16.5889,11.378 16.5889,9.808 C16.5889,9.321 16.5478,8.873 16.4744,8.499 L9.3427,8.499 Z M62.531,10.125 C62.119,9.021 60.847,6.986 58.255,6.986 C55.687,6.986 53.549,8.986 53.549,11.922 C53.549,14.686 55.665,16.856 58.502,16.856 C60.795,16.856 62.119,15.474 62.663,14.669 L60.961,13.548 C60.393,14.368 59.62,14.912 58.502,14.912 C57.391,14.912 56.594,14.409 56.083,13.417 L62.762,10.686 L62.531,10.125 Z M55.722,11.768 C55.665,9.865 57.218,8.89 58.33,8.89 C59.202,8.89 59.941,9.321 60.188,9.938 L55.722,11.768 Z M50.2943,16.556 L52.49,16.556 L52.49,2.052 L50.2943,2.052 L50.2943,16.556 Z M46.6991,8.085 L46.6257,8.085 C46.1327,7.508 45.1921,6.986 44.0005,6.986 C41.5,6.986 39.2138,9.156 39.2138,11.938 C39.2138,14.703 41.5,16.856 44.0005,16.856 C45.1921,16.856 46.1327,16.329 46.6257,15.735 L46.6991,15.735 L46.6991,16.442 C46.6991,18.329 45.6793,19.343 44.0343,19.343 C42.693,19.343 41.861,18.386 41.5176,17.581 L39.6085,18.369 C40.1588,19.677 41.6159,21.287 44.0343,21.287 C46.6081,21.287 48.7799,19.79 48.7799,16.148 L48.7799,7.286 L46.6991,7.286 L46.6991,8.085 Z M44.1883,14.912 C42.6754,14.912 41.409,13.661 41.409,11.938 C41.409,10.199 42.6754,8.93 44.1883,8.93 C45.6793,8.93 46.8547,10.199 46.8547,11.938 C46.8547,13.661 45.6793,14.912 44.1883,14.912 Z M72.809,2.052 L67.559,2.052 L67.559,16.556 L69.748,16.556 L69.748,11.06 L72.809,11.06 C75.241,11.06 77.625,9.321 77.625,6.555 C77.625,3.791 75.235,2.052 72.809,2.052 Z M72.866,9.043 L69.748,9.043 L69.748,4.069 L72.866,4.069 C74.501,4.069 75.434,5.411 75.434,6.555 C75.434,7.678 74.501,9.043 72.866,9.043 Z M86.4,6.959 C84.819,6.959 83.174,7.649 82.497,9.179 L84.44,9.984 C84.858,9.179 85.627,8.918 86.44,8.918 C87.576,8.918 88.728,9.592 88.745,10.783 L88.745,10.935 C88.349,10.709 87.501,10.374 86.458,10.374 C84.365,10.374 82.233,11.513 82.233,13.637 C82.233,15.581 83.947,16.833 85.874,16.833 C87.347,16.833 88.16,16.176 88.671,15.411 L88.745,15.411 L88.745,16.532 L90.86,16.532 L90.86,10.969 C90.86,8.397 88.917,6.959 86.4,6.959 Z M86.136,14.906 C85.42,14.906 84.422,14.556 84.422,13.678 C84.422,12.555 85.667,12.125 86.744,12.125 C87.708,12.125 88.16,12.335 88.745,12.612 C88.574,13.955 87.404,14.906 86.136,14.906 Z M98.564,7.276 L96.047,13.563 L95.973,13.563 L93.371,7.276 L91.01,7.276 L94.919,16.062 L92.688,20.952 L94.976,20.952 L101,7.276 L98.564,7.276 Z M78.829,16.556 L81.024,16.556 L81.024,2.052 L78.829,2.052 L78.829,16.556 Z" id="Shape" stroke="#FFFFFF" stroke-width="0.1" mask="url(#mask-2)"></path>
                    <mask id="mask-4" fill="white">
                        <use xlink:href="#path-3"></use>
                    </mask>
                    <g id="Shape"></g>
                </g>
                <path d="M13.5444,10.494 C13.1996,10.851 13,11.407 13,12.126 L13,37.786 C13,38.505 13.1996,39.06 13.5444,39.417 L13.6295,39.496 L28.1776,25.123 L28.1776,24.783 L13.6295,10.41 L13.5444,10.494 Z" id="Path" fill="url(#linearGradient-5)"></path>
                <path d="M33.0214,29.916 L28.1774,25.123 L28.1774,24.783 L33.0272,19.99 L33.1358,20.052 L38.8793,23.282 C40.5185,24.199 40.5185,25.707 38.8793,26.63 L33.1358,29.854 L33.0214,29.916 Z" id="Path" fill="url(#linearGradient-6)"></path>
                <path d="M33.1361,29.854 L28.1777,24.953 L13.5444,39.417 C14.0889,39.983 14.9766,40.051 15.9862,39.486 L33.1361,29.854" id="Path" fill="url(#linearGradient-7)"></path>
                <path d="M33.1361,20.052 L15.9862,10.42 C14.9766,9.86 14.0889,9.929 13.5444,10.494 L28.1777,24.953 L33.1361,20.052 Z" id="Path" fill="url(#linearGradient-8)"></path>
                <path d="M50.9687,13.58 L50.9687,12.716 C50.9687,11.785 51.2178,11.051 51.7158,10.514 C52.2171,9.973 52.8991,9.703 53.7617,9.703 C54.1654,9.703 54.5299,9.765 54.8555,9.889 C55.1842,10.012 55.4528,10.18 55.6611,10.392 C55.8695,10.6 56.0306,10.836 56.1445,11.1 C56.2617,11.363 56.3268,11.643 56.3398,11.939 L55.1875,11.939 C55.1387,11.546 54.9824,11.243 54.7187,11.031 C54.4551,10.816 54.1312,10.709 53.7471,10.709 C53.2718,10.709 52.8877,10.877 52.5947,11.212 C52.3018,11.547 52.1553,12.05 52.1553,12.721 L52.1553,13.58 C52.1553,14.218 52.2871,14.719 52.5508,15.084 C52.8177,15.445 53.2165,15.626 53.7471,15.626 C54.1865,15.626 54.543,15.506 54.8164,15.265 C55.0898,15.021 55.2266,14.715 55.2266,14.347 L55.2266,13.863 L53.752,13.863 L53.752,12.945 L56.3545,12.945 L56.3545,14.288 C56.3545,14.496 56.3268,14.705 56.2715,14.913 C56.2161,15.121 56.1234,15.331 55.9932,15.543 C55.863,15.751 55.7002,15.935 55.5049,16.095 C55.3096,16.254 55.0589,16.384 54.7529,16.485 C54.4502,16.583 54.1117,16.632 53.7373,16.632 C52.8226,16.632 52.1325,16.357 51.667,15.807 C51.2015,15.257 50.9687,14.514 50.9687,13.58 Z M58.3605,16.5 L58.3605,9.835 L62.5695,9.835 L62.5695,10.821 L59.5373,10.821 L59.5373,12.652 L62.3889,12.652 L62.3889,13.585 L59.5373,13.585 L59.5373,15.514 L62.5695,15.514 L62.5695,16.5 L58.3605,16.5 Z M63.9701,10.836 L63.9701,9.835 L69.0141,9.835 L69.0141,10.836 L67.0756,10.836 L67.0756,16.5 L65.9037,16.5 L65.9037,10.836 L63.9701,10.836 Z M73.4168,16.5 L73.4168,9.835 L74.5984,9.835 L74.5984,16.5 L73.4168,16.5 Z M76.2236,10.836 L76.2236,9.835 L81.2676,9.835 L81.2676,10.836 L79.3291,10.836 L79.3291,16.5 L78.1572,16.5 L78.1572,10.836 L76.2236,10.836 Z M85.4066,13.639 L85.4066,12.75 C85.4066,11.806 85.6573,11.062 86.1586,10.519 C86.6599,9.975 87.3435,9.703 88.2094,9.703 C89.0753,9.703 89.7572,9.975 90.2553,10.519 C90.7533,11.062 91.0023,11.806 91.0023,12.75 L91.0023,13.639 C91.0023,14.576 90.7517,15.31 90.2504,15.841 C89.7523,16.368 89.0671,16.632 88.1947,16.632 C87.3256,16.632 86.6436,16.368 86.1488,15.841 C85.654,15.313 85.4066,14.579 85.4066,13.639 Z M86.598,13.644 C86.598,14.295 86.7445,14.789 87.0375,15.128 C87.3305,15.463 87.7195,15.631 88.2045,15.631 C88.6863,15.631 89.0736,15.463 89.3666,15.128 C89.6596,14.789 89.8061,14.295 89.8061,13.644 L89.8061,12.74 C89.8061,12.086 89.6579,11.583 89.3617,11.231 C89.0687,10.88 88.683,10.704 88.2045,10.704 C87.7227,10.704 87.3337,10.88 87.0375,11.231 C86.7445,11.583 86.598,12.086 86.598,12.74 L86.598,13.644 Z M93.0035,16.5 L93.0035,9.835 L94.024,9.835 L97.0855,14.498 L97.1246,14.498 L97.1246,9.835 L98.2477,9.835 L98.2477,16.5 L97.2369,16.5 L94.1656,11.822 L94.1314,11.822 L94.1314,16.5 L93.0035,16.5 Z" id="Shape" fill="#FFFFFF" fill-rule="nonzero"></path>
            </g>
            <g id="Group" transform="translate(0.000000, 50.000000)">
                <rect id="Rectangle" fill="#000000" x="0" y="0.490196078" width="160" height="49.0196078" rx="5"></rect>
                <path d="M31.4359,8.82352941 C31.7042,10.61 30.9625,12.360098 29.9841,13.5983333 C28.9374,14.9264706 27.1331,15.9537255 25.385,15.900098 C25.0658,14.1898039 25.8829,12.427549 26.8771,11.2429412 C27.9677,9.9354902 29.8368,8.93245098 31.4359,8.82352941 Z M36.6874,33.9687255 C37.5886,32.6146078 37.9253,31.9315686 38.6249,30.4027451 C33.5365,28.5056863 32.7212,21.4135294 37.757,18.6914706 C36.221,16.8029412 34.0625,15.7083333 32.0251,15.7083333 C30.557,15.7083333 29.5512,16.0839216 28.6367,16.4253922 C27.8747,16.709902 27.1762,16.9707843 26.3265,16.9707843 C25.4084,16.9707843 24.5954,16.684902 23.7441,16.3856863 C22.8086,16.0568627 21.8269,15.7117647 20.6087,15.7117647 C18.3223,15.7117647 15.8886,17.0813725 14.3456,19.4229412 C12.1766,22.7208824 12.5466,28.9206863 16.0639,34.2021569 C17.3211,36.0923529 19.0008,38.2160784 21.1979,38.235098 C22.1095,38.2439216 22.7161,37.9772549 23.3726,37.6885294 C24.1239,37.3581373 24.9406,36.9990196 26.3546,36.9916667 C27.7769,36.9833333 28.5807,37.3467647 29.3221,37.6820588 C29.9617,37.9712745 30.5549,38.2395098 31.4587,38.229902 C33.6575,38.2126471 35.4302,35.8589216 36.6874,33.9687255 Z" id="Shape" fill="#FFFFFF"></path>
                <path d="M51.1592,16.6666667 L51.1592,10.7857843 L53.2729,10.7857843 C53.7446,10.7857843 54.1533,10.857549 54.499,11.0011765 C54.8477,11.1418627 55.126,11.3444118 55.334,11.6086275 C55.542,11.8729412 55.6943,12.1801961 55.791,12.5305882 C55.8906,12.8781373 55.9404,13.2731373 55.9404,13.7153922 C55.9404,14.0658824 55.9111,14.387549 55.8525,14.6804902 C55.7939,14.9705882 55.6973,15.2405882 55.5625,15.4904902 C55.4277,15.737451 55.2578,15.9471569 55.0527,16.1195098 C54.8506,16.2918627 54.5986,16.4268627 54.2969,16.5245098 C53.9951,16.6193137 53.6538,16.6666667 53.2729,16.6666667 L51.1592,16.6666667 Z M52.2227,15.7963725 L53.1455,15.7963725 C53.7139,15.7963725 54.1387,15.6311765 54.4199,15.3008824 C54.7041,14.9705882 54.8462,14.4478431 54.8462,13.7326471 C54.8462,13.4138235 54.8169,13.1323529 54.7583,12.8882353 C54.6997,12.6441176 54.606,12.4272549 54.4771,12.2376471 C54.3481,12.0481373 54.1709,11.9030392 53.9453,11.802549 C53.7227,11.7019608 53.4561,11.6517647 53.1455,11.6517647 L52.2227,11.6517647 L52.2227,15.7963725 Z M57.4339,14.1419608 L57.4339,13.3578431 C57.4339,12.524902 57.6595,11.8686275 58.1106,11.3889216 C58.5618,10.9092157 59.177,10.6694118 59.9563,10.6694118 C60.7356,10.6694118 61.3494,10.9092157 61.7976,11.3889216 C62.2459,11.8686275 62.47,12.524902 62.47,13.3578431 L62.47,14.1419608 C62.47,14.9692157 62.2444,15.6168627 61.7932,16.085 C61.345,16.5502941 60.7283,16.7830392 59.9431,16.7830392 C59.1609,16.7830392 58.5471,16.5502941 58.1018,16.085 C57.6565,15.6197059 57.4339,14.9720588 57.4339,14.1419608 Z M58.5061,14.1462745 C58.5061,14.7206863 58.638,15.1572549 58.9016,15.4559804 C59.1653,15.7518627 59.5154,15.8998039 59.9519,15.8998039 C60.3855,15.8998039 60.7342,15.7518627 60.9978,15.4559804 C61.2615,15.1572549 61.3933,14.7206863 61.3933,14.1462745 L61.3933,13.3492157 C61.3933,12.7718627 61.26,12.3281373 60.9934,12.0179412 C60.7298,11.7077451 60.3826,11.5526471 59.9519,11.5526471 C59.5183,11.5526471 59.1682,11.7077451 58.9016,12.0179412 C58.638,12.3281373 58.5061,12.7718627 58.5061,13.3492157 L58.5061,14.1462745 Z M63.6514,10.7857843 L64.8204,10.7857843 L65.7872,15.1027451 L65.8267,15.1027451 L66.9254,10.7857843 L67.8878,10.7857843 L68.982,15.1027451 L69.0259,15.1027451 L69.9883,10.7857843 L71.1573,10.7857843 L69.5533,16.6666667 L68.5777,16.6666667 L67.4219,12.4315686 L67.3824,12.4315686 L66.2266,16.6666667 L65.251,16.6666667 L63.6514,10.7857843 Z M72.576,16.6666667 L72.576,10.7857843 L73.4945,10.7857843 L76.2498,14.9001961 L76.285,14.9001961 L76.285,10.7857843 L77.2957,10.7857843 L77.2957,16.6666667 L76.3861,16.6666667 L73.6219,12.5392157 L73.5912,12.5392157 L73.5912,16.6666667 L72.576,16.6666667 Z M79.3429,16.6666667 L79.3429,10.7857843 L80.4064,10.7857843 L80.4064,15.7704902 L83.0167,15.7704902 L83.0167,16.6666667 L79.3429,16.6666667 Z M84.0971,14.1419608 L84.0971,13.3578431 C84.0971,12.524902 84.3227,11.8686275 84.7738,11.3889216 C85.225,10.9092157 85.8402,10.6694118 86.6195,10.6694118 C87.3988,10.6694118 88.0126,10.9092157 88.4608,11.3889216 C88.9091,11.8686275 89.1332,12.524902 89.1332,13.3578431 L89.1332,14.1419608 C89.1332,14.9692157 88.9076,15.6168627 88.4564,16.085 C88.0082,16.5502941 87.3915,16.7830392 86.6063,16.7830392 C85.8241,16.7830392 85.2104,16.5502941 84.765,16.085 C84.3197,15.6197059 84.0971,14.9720588 84.0971,14.1419608 Z M85.1693,14.1462745 C85.1693,14.7206863 85.3012,15.1572549 85.5648,15.4559804 C85.8285,15.7518627 86.1786,15.8998039 86.6151,15.8998039 C87.0487,15.8998039 87.3974,15.7518627 87.661,15.4559804 C87.9247,15.1572549 88.0565,14.7206863 88.0565,14.1462745 L88.0565,13.3492157 C88.0565,12.7718627 87.9232,12.3281373 87.6566,12.0179412 C87.393,11.7077451 87.0458,11.5526471 86.6151,11.5526471 C86.1815,11.5526471 85.8314,11.7077451 85.5648,12.0179412 C85.3012,12.3281373 85.1693,12.7718627 85.1693,13.3492157 L85.1693,14.1462745 Z M90.2531,16.6666667 L92.301,10.7857843 L93.5095,10.7857843 L95.5529,16.6666667 L94.4147,16.6666667 L93.905,15.0811765 L91.8351,15.0811765 L91.3254,16.6666667 L90.2531,16.6666667 Z M92.068,14.2884314 L93.6764,14.2884314 L92.8942,11.8412745 L92.8547,11.8412745 L92.068,14.2884314 Z M97.0156,16.6666667 L97.0156,10.7857843 L99.1294,10.7857843 C99.601,10.7857843 100.01,10.857549 100.355,11.0011765 C100.704,11.1418627 100.982,11.3444118 101.19,11.6086275 C101.398,11.8729412 101.551,12.1801961 101.647,12.5305882 C101.747,12.8781373 101.797,13.2731373 101.797,13.7153922 C101.797,14.0658824 101.768,14.387549 101.709,14.6804902 C101.65,14.9705882 101.554,15.2405882 101.419,15.4904902 C101.284,15.737451 101.114,15.9471569 100.909,16.1195098 C100.707,16.2918627 100.455,16.4268627 100.153,16.5245098 C99.8515,16.6193137 99.5102,16.6666667 99.1294,16.6666667 L97.0156,16.6666667 Z M98.0791,15.7963725 L99.0019,15.7963725 C99.5703,15.7963725 99.9951,15.6311765 100.276,15.3008824 C100.561,14.9705882 100.703,14.4478431 100.703,13.7326471 C100.703,13.4138235 100.673,13.1323529 100.615,12.8882353 C100.556,12.6441176 100.462,12.4272549 100.333,12.2376471 C100.205,12.0481373 100.027,11.9030392 99.8017,11.802549 C99.5791,11.7019608 99.3125,11.6517647 99.0019,11.6517647 L98.0791,11.6517647 L98.0791,15.7963725 Z M105.794,14.1419608 L105.794,13.3578431 C105.794,12.524902 106.02,11.8686275 106.471,11.3889216 C106.922,10.9092157 107.538,10.6694118 108.317,10.6694118 C109.096,10.6694118 109.71,10.9092157 110.158,11.3889216 C110.606,11.8686275 110.831,12.524902 110.831,13.3578431 L110.831,14.1419608 C110.831,14.9692157 110.605,15.6168627 110.154,16.085 C109.706,16.5502941 109.089,16.7830392 108.304,16.7830392 C107.522,16.7830392 106.908,16.5502941 106.462,16.085 C106.017,15.6197059 105.794,14.9720588 105.794,14.1419608 Z M106.867,14.1462745 C106.867,14.7206863 106.999,15.1572549 107.262,15.4559804 C107.526,15.7518627 107.876,15.8998039 108.313,15.8998039 C108.746,15.8998039 109.095,15.7518627 109.358,15.4559804 C109.622,15.1572549 109.754,14.7206863 109.754,14.1462745 L109.754,13.3492157 C109.754,12.7718627 109.621,12.3281373 109.354,12.0179412 C109.09,11.7077451 108.743,11.5526471 108.313,11.5526471 C107.879,11.5526471 107.529,11.7077451 107.262,12.0179412 C106.999,12.3281373 106.867,12.7718627 106.867,13.3492157 L106.867,14.1462745 Z M112.632,16.6666667 L112.632,10.7857843 L113.55,10.7857843 L116.305,14.9001961 L116.341,14.9001961 L116.341,10.7857843 L117.351,10.7857843 L117.351,16.6666667 L116.442,16.6666667 L113.678,12.5392157 L113.647,12.5392157 L113.647,16.6666667 L112.632,16.6666667 Z M121.318,11.6689216 L121.318,10.7857843 L125.858,10.7857843 L125.858,11.6689216 L124.113,11.6689216 L124.113,16.6666667 L123.058,16.6666667 L123.058,11.6689216 L121.318,11.6689216 Z M127.316,16.6666667 L127.316,10.7857843 L128.38,10.7857843 L128.38,13.2113725 L131.051,13.2113725 L131.051,10.7857843 L132.115,10.7857843 L132.115,16.6666667 L131.051,16.6666667 L131.051,14.0902941 L128.38,14.0902941 L128.38,16.6666667 L127.316,16.6666667 Z M134.153,16.6666667 L134.153,10.7857843 L137.941,10.7857843 L137.941,11.6560784 L135.212,11.6560784 L135.212,13.2716667 L137.779,13.2716667 L137.779,14.0946078 L135.212,14.0946078 L135.212,15.7963725 L137.941,15.7963725 L137.941,16.6666667 L134.153,16.6666667 Z" id="Shape" fill="#FFFFFF" fill-rule="nonzero"></path>
                <path d="M49.1909,38.2352941 L54.4243,23.2062745 L57.5127,23.2062745 L62.7349,38.2352941 L59.8262,38.2352941 L58.5234,34.1835294 L53.2339,34.1835294 L51.9312,38.2352941 L49.1909,38.2352941 Z M53.8291,32.1576471 L57.9395,32.1576471 L55.9404,25.9038235 L55.8394,25.9038235 L53.8291,32.1576471 Z M64.4028,42.1659804 L64.4028,26.5753922 L66.9971,26.5753922 L66.9971,28.26 L67.0981,28.26 C67.3452,27.7021569 67.772,27.2580392 68.3784,26.9277451 C68.9848,26.590098 69.7335,26.4212745 70.6245,26.4212745 C71.9796,26.4212745 73.0615,26.8873529 73.8701,27.8196078 C74.6862,28.7517647 75.0942,30.0509804 75.0942,31.7172549 L75.0942,33.1154902 C75.0942,34.7817647 74.6862,36.0772549 73.8701,37.0021569 C73.0615,37.9269608 71.9647,38.3894118 70.5796,38.3894118 C69.7111,38.3894118 68.9923,38.2243137 68.4233,37.8940196 C67.8543,37.5636275 67.435,37.1305882 67.1655,36.5948039 L67.0532,36.5948039 L67.0532,42.1659804 L64.4028,42.1659804 Z M67.0532,32.9723529 C67.0532,33.9339216 67.2965,34.7266667 67.7832,35.3505882 C68.2773,35.9671569 68.9399,36.2754902 69.771,36.2754902 C70.5646,36.2754902 71.1972,35.9892157 71.6689,35.4166667 C72.1481,34.8367647 72.3877,33.9963725 72.3877,32.8952941 L72.3877,31.9153922 C72.3877,30.8290196 72.1518,29.9959804 71.6802,29.4160784 C71.2085,28.8288235 70.5571,28.5352941 69.7261,28.5352941 C68.9025,28.5352941 68.2511,28.832549 67.772,29.4270588 C67.2928,30.0143137 67.0532,30.7997059 67.0532,31.7832353 L67.0532,32.9723529 Z M77.4248,42.1659804 L77.4248,26.5753922 L80.019,26.5753922 L80.019,28.26 L80.1201,28.26 C80.3671,27.7021569 80.7939,27.2580392 81.4004,26.9277451 C82.0068,26.590098 82.7555,26.4212745 83.6464,26.4212745 C85.0016,26.4212745 86.0835,26.8873529 86.8921,27.8196078 C87.7081,28.7517647 88.1162,30.0509804 88.1162,31.7172549 L88.1162,33.1154902 C88.1162,34.7817647 87.7081,36.0772549 86.8921,37.0021569 C86.0835,37.9269608 84.9866,38.3894118 83.6015,38.3894118 C82.733,38.3894118 82.0143,38.2243137 81.4453,37.8940196 C80.8763,37.5636275 80.457,37.1305882 80.1875,36.5948039 L80.0752,36.5948039 L80.0752,42.1659804 L77.4248,42.1659804 Z M80.0752,32.9723529 C80.0752,33.9339216 80.3185,34.7266667 80.8051,35.3505882 C81.2993,35.9671569 81.9619,36.2754902 82.7929,36.2754902 C83.5866,36.2754902 84.2192,35.9892157 84.6909,35.4166667 C85.17,34.8367647 85.4096,33.9963725 85.4096,32.8952941 L85.4096,31.9153922 C85.4096,30.8290196 85.1738,29.9959804 84.7021,29.4160784 C84.2304,28.8288235 83.5791,28.5352941 82.748,28.5352941 C81.9244,28.5352941 81.2731,28.832549 80.7939,29.4270588 C80.3147,30.0143137 80.0752,30.7997059 80.0752,31.7832353 L80.0752,32.9723529 Z M93.9003,34.0294118 L96.5395,34.0294118 C96.5994,34.6973529 96.9213,35.2551961 97.5053,35.7029412 C98.0893,36.1433333 98.8866,36.3635294 99.8974,36.3635294 C100.856,36.3635294 101.604,36.1616667 102.143,35.7579412 C102.69,35.3543137 102.963,34.807451 102.963,34.117451 C102.963,33.5743137 102.769,33.1411765 102.379,32.8182353 C101.997,32.4952941 101.391,32.2347059 100.56,32.0364706 L98.1005,31.4529412 C97.5689,31.3354902 97.0823,31.1740196 96.6405,30.9685294 C96.2063,30.7556863 95.8058,30.4913725 95.4389,30.1757843 C95.0795,29.8528431 94.7988,29.4527451 94.5966,28.9756863 C94.3945,28.4985294 94.2934,27.9627451 94.2934,27.3681373 C94.2934,26.4359804 94.5517,25.624902 95.0683,24.934902 C95.5849,24.237549 96.2625,23.720098 97.101,23.382451 C97.9395,23.0448039 98.8717,22.8759804 99.8974,22.8759804 C100.931,22.8759804 101.863,23.0484314 102.694,23.3934314 C103.532,23.7384314 104.199,24.2522549 104.693,24.934902 C105.194,25.6101961 105.453,26.3955882 105.468,27.2910784 L102.885,27.2910784 C102.832,26.6378431 102.548,26.0983333 102.031,25.672549 C101.515,25.2468627 100.796,25.0340196 99.8749,25.0340196 C99.0139,25.0340196 98.3214,25.2248039 97.7973,25.6065686 C97.2807,25.9808824 97.0224,26.4983333 97.0224,27.1589216 C97.0224,28.1351961 97.7262,28.7848039 99.1337,29.1077451 L101.604,29.6913725 C102.218,29.8307843 102.757,30.0033333 103.222,30.2088235 C103.686,30.4143137 104.109,30.6786275 104.491,31.0015686 C104.88,31.3245098 105.176,31.7282353 105.378,32.2126471 C105.58,32.6971569 105.681,33.255 105.681,33.8862745 C105.681,35.3396078 105.135,36.4773529 104.041,37.2994118 C102.956,38.1215686 101.511,38.532549 99.7065,38.532549 C98.8754,38.532549 98.123,38.4407843 97.4491,38.2573529 C96.7828,38.0738235 96.2325,37.8352941 95.7983,37.5416667 C95.3715,37.2480392 95.0121,36.9030392 94.7201,36.5066667 C94.4281,36.1029412 94.2185,35.6992157 94.0912,35.2955882 C93.9714,34.8845098 93.9078,34.462451 93.9003,34.0294118 Z M107.136,28.7113725 L107.136,26.6745098 L108.843,26.6745098 L108.843,23.7678431 L111.426,23.7678431 L111.426,26.6745098 L113.739,26.6745098 L113.739,28.7113725 L111.426,28.7113725 L111.426,34.69 C111.426,35.2992157 111.557,35.7176471 111.819,35.9451961 C112.088,36.1653922 112.556,36.2754902 113.223,36.2754902 C113.515,36.2754902 113.709,36.2681373 113.807,36.2534314 L113.807,38.2243137 C113.425,38.2830392 113.013,38.3123529 112.571,38.3123529 C111.605,38.3123529 110.845,38.1912745 110.291,37.9490196 C109.737,37.7067647 109.348,37.3507843 109.123,36.8810784 C108.906,36.4039216 108.798,35.7616667 108.798,34.9542157 L108.798,28.7113725 L107.136,28.7113725 Z M115.272,32.8072549 L115.272,31.9814706 C115.272,30.895098 115.463,29.9372549 115.845,29.1077451 C116.234,28.2783333 116.837,27.6177451 117.653,27.1259804 C118.469,26.6341176 119.458,26.3882353 120.618,26.3882353 C122.355,26.3882353 123.676,26.8947059 124.582,27.9076471 C125.496,28.9132353 125.953,30.267549 125.953,31.9704902 L125.953,32.8072549 C125.953,34.5542157 125.5,35.9304902 124.594,36.9360784 C123.688,37.9343137 122.363,38.4334314 120.618,38.4334314 C118.874,38.4334314 117.545,37.9343137 116.631,36.9360784 C115.725,35.9378431 115.272,34.5615686 115.272,32.8072549 Z M117.934,32.7411765 C117.934,33.2402941 117.979,33.6953922 118.069,34.1064706 C118.159,34.517451 118.301,34.8992157 118.495,35.2514706 C118.69,35.5964706 118.967,35.8680392 119.327,36.0662745 C119.686,36.2644118 120.116,36.3635294 120.618,36.3635294 C121.112,36.3635294 121.539,36.2681373 121.898,36.0772549 C122.258,35.8791176 122.531,35.6038235 122.718,35.2514706 C122.913,34.8992157 123.051,34.517451 123.134,34.1064706 C123.224,33.6953922 123.268,33.2402941 123.268,32.7411765 L123.268,32.0695098 C123.268,31.5630392 123.224,31.1043137 123.134,30.6932353 C123.051,30.2822549 122.913,29.9004902 122.718,29.5482353 C122.523,29.1958824 122.246,28.9243137 121.887,28.7334314 C121.535,28.5352941 121.112,28.4361765 120.618,28.4361765 C120.124,28.4361765 119.693,28.5352941 119.327,28.7334314 C118.967,28.9316667 118.69,29.2068627 118.495,29.5592157 C118.301,29.9042157 118.159,30.2858824 118.069,30.7043137 C117.979,31.1152941 117.934,31.5703922 117.934,32.0695098 L117.934,32.7411765 Z M128.384,38.2352941 L128.384,26.5864706 L131.035,26.5864706 L131.035,28.0948039 L131.136,28.0948039 C131.585,26.9717647 132.524,26.4102941 133.954,26.4102941 C134.261,26.4102941 134.553,26.4359804 134.83,26.4873529 L134.83,28.7664706 C134.643,28.7077451 134.276,28.6784314 133.73,28.6784314 C131.963,28.6784314 131.079,29.5812745 131.079,31.3868627 L131.079,38.2352941 L128.384,38.2352941 Z M135.791,32.9283333 L135.791,31.9484314 C135.791,30.2454902 136.248,28.894902 137.161,27.8966667 C138.074,26.8910784 139.336,26.3882353 140.946,26.3882353 C142.585,26.3882353 143.851,26.8910784 144.742,27.8966667 C145.64,28.9022549 146.089,30.2492157 146.089,31.937451 L146.089,32.9834314 L138.408,32.9834314 L138.408,33.3467647 C138.408,34.2054902 138.64,34.924902 139.104,35.5047059 C139.568,36.0846078 140.231,36.3746078 141.092,36.3746078 C141.773,36.3746078 142.305,36.2277451 142.686,35.9341176 C143.076,35.6405882 143.315,35.269902 143.405,34.8221569 L145.966,34.8221569 C145.928,35.152451 145.842,35.4790196 145.707,35.8020588 C145.58,36.125 145.389,36.4479412 145.135,36.7708824 C144.88,37.0939216 144.573,37.3764706 144.214,37.6187255 C143.862,37.8609804 143.416,38.0591176 142.877,38.2132353 C142.338,38.360098 141.747,38.4334314 141.103,38.4334314 C139.411,38.4334314 138.101,37.9453922 137.172,36.9691176 C136.251,35.9854902 135.791,34.6386275 135.791,32.9283333 Z M138.408,31.2327451 L143.506,31.2327451 L143.506,31.2107843 C143.506,30.3739216 143.278,29.695 142.821,29.1738235 C142.364,28.6526471 141.747,28.3921569 140.968,28.3921569 C140.182,28.3921569 139.557,28.6563725 139.093,29.184902 C138.636,29.7059804 138.408,30.3812745 138.408,31.2107843 L138.408,31.2327451 Z" id="Shape" fill="#FFFFFF" fill-rule="nonzero"></path>
            </g>
            <g id="Group">
                <rect id="Rectangle" fill="#000000" x="0" y="0" width="160" height="50" rx="5"></rect>
                <path d="M31.4653,12.1511 L31.1208,12.6578 C33.7351,13.8444 35.5049,16.0917 35.5049,18.6635 L18.2456,18.6635 C18.2456,16.0917 20.0154,13.8444 22.6316,12.6578 L22.2851,12.1511 L21.9405,11.6517 L21.1727,10.5289 C21.0791,10.3904 21.1184,10.2045 21.2589,10.1134 C21.4012,10.0222 21.5922,10.0587 21.6877,10.1972 L22.5117,11.4002 L22.8582,11.905 L23.2084,12.419 C24.3227,11.998 25.5662,11.7629 26.8752,11.7629 C28.1862,11.7629 29.4278,11.998 30.5421,12.419 L30.8942,11.905 L32.0665,10.1972 C32.1583,10.0587 32.3512,10.0204 32.4916,10.1134 C32.6339,10.2045 32.6733,10.3904 32.5778,10.5289 L31.8099,11.6517 L31.4653,12.1511 Z M18.2456,19.863 L18.3786,19.863 L35.5049,19.863 L35.5049,33.0629 C35.5049,34.1109 34.6322,34.9639 33.5535,34.9639 L32.1433,34.9639 C32.192,35.1225 32.2201,35.2884 32.2201,35.4633 L32.2201,39.2636 C32.2201,40.257 31.3904,41.0626 30.3679,41.0626 C29.3473,41.0626 28.5195,40.257 28.5195,39.2636 L28.5195,35.4633 C28.5195,35.2884 28.5457,35.1225 28.5925,34.9639 L25.1579,34.9639 C25.2047,35.1225 25.2328,35.2884 25.2328,35.4633 L25.2328,39.2636 C25.2328,40.257 24.4032,41.0626 23.3826,41.0626 C22.3619,41.0626 21.5323,40.257 21.5323,39.2636 L21.5323,35.4633 C21.5323,35.2884 21.5585,35.1225 21.6072,34.9639 L20.1989,34.9639 C19.1202,34.9639 18.2456,34.1109 18.2456,33.0629 L18.2456,19.863 Z M15.1628,19.863 C14.1403,19.863 13.3125,20.6687 13.3125,21.662 L13.3125,29.3628 C13.3125,30.3562 14.1403,31.1618 15.1628,31.1618 C16.1834,31.1618 17.0112,30.3562 17.0112,29.3628 L17.0112,21.662 C17.0112,20.6687 16.1834,19.863 15.1628,19.863 Z M36.7388,21.662 C36.7388,20.6687 37.5665,19.863 38.5891,19.863 C39.6097,19.863 40.4375,20.6687 40.4375,21.662 L40.4375,29.3628 C40.4375,30.3562 39.6097,31.1618 38.5891,31.1618 C37.5665,31.1618 36.7388,30.3562 36.7388,29.3628 L36.7388,21.662 Z M21.6758,16.2629 C21.1646,16.2629 20.7509,15.8602 20.7509,15.3627 C20.7509,14.8652 21.1646,14.4644 21.6758,14.4644 C22.1869,14.4644 22.6007,14.8652 22.6007,15.3627 C22.6007,15.8602 22.1869,16.2629 21.6758,16.2629 Z M28.1486,15.3627 C28.1486,15.8602 28.5623,16.2629 29.0735,16.2629 C29.5846,16.2629 29.9984,15.8602 29.9984,15.3627 C29.9984,14.8652 29.5846,14.4644 29.0735,14.4644 C28.5623,14.4644 28.1486,14.8652 28.1486,15.3627 Z" id="Shape" fill="#FFFFFF"></path>
                <path d="M50.6592,17 L50.6592,11.0015 L52.7729,11.0015 C53.2446,11.0015 53.6533,11.0747 53.999,11.2212 C54.3477,11.3647 54.626,11.5713 54.834,11.8408 C55.042,12.1104 55.1943,12.4238 55.291,12.7812 C55.3906,13.1357 55.4404,13.5386 55.4404,13.9897 C55.4404,14.3472 55.4111,14.6753 55.3525,14.9741 C55.2939,15.27 55.1973,15.5454 55.0625,15.8003 C54.9277,16.0522 54.7578,16.2661 54.5527,16.4419 C54.3506,16.6177 54.0986,16.7554 53.7969,16.855 C53.4951,16.9517 53.1538,17 52.7729,17 L50.6592,17 Z M51.7227,16.1123 L52.6455,16.1123 C53.2139,16.1123 53.6387,15.9438 53.9199,15.6069 C54.2041,15.27 54.3462,14.7368 54.3462,14.0073 C54.3462,13.6821 54.3169,13.395 54.2583,13.146 C54.1997,12.897 54.106,12.6758 53.9771,12.4824 C53.8481,12.2891 53.6709,12.1411 53.4453,12.0386 C53.2227,11.936 52.9561,11.8848 52.6455,11.8848 L51.7227,11.8848 L51.7227,16.1123 Z M56.9339,14.4248 L56.9339,13.625 C56.9339,12.7754 57.1595,12.106 57.6106,11.6167 C58.0618,11.1274 58.677,10.8828 59.4563,10.8828 C60.2356,10.8828 60.8494,11.1274 61.2976,11.6167 C61.7459,12.106 61.97,12.7754 61.97,13.625 L61.97,14.4248 C61.97,15.2686 61.7444,15.9292 61.2932,16.4067 C60.845,16.8813 60.2283,17.1187 59.4431,17.1187 C58.6609,17.1187 58.0471,16.8813 57.6018,16.4067 C57.1565,15.9321 56.9339,15.2715 56.9339,14.4248 Z M58.0061,14.4292 C58.0061,15.0151 58.138,15.4604 58.4016,15.7651 C58.6653,16.0669 59.0154,16.2178 59.4519,16.2178 C59.8855,16.2178 60.2342,16.0669 60.4978,15.7651 C60.7615,15.4604 60.8933,15.0151 60.8933,14.4292 L60.8933,13.6162 C60.8933,13.0273 60.76,12.5747 60.4934,12.2583 C60.2298,11.9419 59.8826,11.7837 59.4519,11.7837 C59.0183,11.7837 58.6682,11.9419 58.4016,12.2583 C58.138,12.5747 58.0061,13.0273 58.0061,13.6162 L58.0061,14.4292 Z M63.1514,11.0015 L64.3204,11.0015 L65.2872,15.4048 L65.3267,15.4048 L66.4254,11.0015 L67.3878,11.0015 L68.482,15.4048 L68.5259,15.4048 L69.4883,11.0015 L70.6573,11.0015 L69.0533,17 L68.0777,17 L66.9219,12.6802 L66.8824,12.6802 L65.7266,17 L64.751,17 L63.1514,11.0015 Z M72.076,17 L72.076,11.0015 L72.9945,11.0015 L75.7498,15.1982 L75.785,15.1982 L75.785,11.0015 L76.7957,11.0015 L76.7957,17 L75.8861,17 L73.1219,12.79 L73.0912,12.79 L73.0912,17 L72.076,17 Z M78.8429,17 L78.8429,11.0015 L79.9064,11.0015 L79.9064,16.0859 L82.5167,16.0859 L82.5167,17 L78.8429,17 Z M83.5971,14.4248 L83.5971,13.625 C83.5971,12.7754 83.8227,12.106 84.2738,11.6167 C84.725,11.1274 85.3402,10.8828 86.1195,10.8828 C86.8988,10.8828 87.5126,11.1274 87.9608,11.6167 C88.4091,12.106 88.6332,12.7754 88.6332,13.625 L88.6332,14.4248 C88.6332,15.2686 88.4076,15.9292 87.9564,16.4067 C87.5082,16.8813 86.8915,17.1187 86.1063,17.1187 C85.3241,17.1187 84.7104,16.8813 84.265,16.4067 C83.8197,15.9321 83.5971,15.2715 83.5971,14.4248 Z M84.6693,14.4292 C84.6693,15.0151 84.8012,15.4604 85.0648,15.7651 C85.3285,16.0669 85.6786,16.2178 86.1151,16.2178 C86.5487,16.2178 86.8974,16.0669 87.161,15.7651 C87.4247,15.4604 87.5565,15.0151 87.5565,14.4292 L87.5565,13.6162 C87.5565,13.0273 87.4232,12.5747 87.1566,12.2583 C86.893,11.9419 86.5458,11.7837 86.1151,11.7837 C85.6815,11.7837 85.3314,11.9419 85.0648,12.2583 C84.8012,12.5747 84.6693,13.0273 84.6693,13.6162 L84.6693,14.4292 Z M89.7531,17 L91.801,11.0015 L93.0095,11.0015 L95.0529,17 L93.9147,17 L93.405,15.3828 L91.3351,15.3828 L90.8254,17 L89.7531,17 Z M91.568,14.5742 L93.1764,14.5742 L92.3942,12.0781 L92.3547,12.0781 L91.568,14.5742 Z M96.5156,17 L96.5156,11.0015 L98.6294,11.0015 C99.101,11.0015 99.5097,11.0747 99.8554,11.2212 C100.204,11.3647 100.482,11.5713 100.69,11.8408 C100.898,12.1104 101.051,12.4238 101.147,12.7812 C101.247,13.1357 101.297,13.5386 101.297,13.9897 C101.297,14.3472 101.268,14.6753 101.209,14.9741 C101.15,15.27 101.054,15.5454 100.919,15.8003 C100.784,16.0522 100.614,16.2661 100.409,16.4419 C100.207,16.6177 99.955,16.7554 99.6533,16.855 C99.3515,16.9517 99.0102,17 98.6294,17 L96.5156,17 Z M97.5791,16.1123 L98.5019,16.1123 C99.0703,16.1123 99.4951,15.9438 99.7763,15.6069 C100.061,15.27 100.203,14.7368 100.203,14.0073 C100.203,13.6821 100.173,13.395 100.115,13.146 C100.056,12.897 99.9624,12.6758 99.8335,12.4824 C99.7046,12.2891 99.5273,12.1411 99.3017,12.0386 C99.0791,11.936 98.8125,11.8848 98.5019,11.8848 L97.5791,11.8848 L97.5791,16.1123 Z M104.947,17 L106.995,11.0015 L108.204,11.0015 L110.247,17 L109.109,17 L108.599,15.3828 L106.529,15.3828 L106.02,17 L104.947,17 Z M106.762,14.5742 L108.371,14.5742 L107.588,12.0781 L107.549,12.0781 L106.762,14.5742 Z M111.71,17 L111.71,11.0015 L114.048,11.0015 C114.66,11.0015 115.145,11.1846 115.502,11.5508 C115.86,11.917 116.038,12.3872 116.038,12.9614 C116.038,13.5386 115.858,14.0073 115.498,14.3677 C115.14,14.728 114.654,14.9082 114.039,14.9082 L112.773,14.9082 L112.773,17 L111.71,17 Z M112.773,14.0557 L113.542,14.0557 C114.017,14.0557 114.371,13.9766 114.606,13.8184 C114.84,13.6572 114.957,13.3716 114.957,12.9614 C114.957,12.6128 114.862,12.3433 114.672,12.1528 C114.481,11.9624 114.215,11.8672 113.872,11.8672 L112.773,11.8672 L112.773,14.0557 Z M117.633,17 L117.633,11.0015 L118.696,11.0015 L118.696,13.7524 L118.745,13.7524 L121.118,11.0015 L122.3,11.0015 L120.133,13.5767 L122.401,17 L121.109,17 L119.351,14.293 L118.696,15.0181 L118.696,17 L117.633,17 Z M125.99,14.1655 C125.99,13.1108 126.199,12.3022 126.618,11.7397 C127.04,11.1743 127.609,10.8916 128.323,10.8916 C128.613,10.8916 128.88,10.9385 129.123,11.0322 C129.369,11.126 129.57,11.2505 129.725,11.4058 C129.881,11.5581 130.004,11.7251 130.094,11.9067 C130.185,12.0884 130.238,12.2729 130.253,12.4604 L129.237,12.4604 C129.217,12.2817 129.122,12.1177 128.952,11.9683 C128.785,11.8188 128.567,11.7441 128.297,11.7441 C127.904,11.7441 127.591,11.9375 127.357,12.3242 C127.125,12.7109 127.005,13.2529 126.996,13.9502 L127.036,13.9502 C127.13,13.7129 127.301,13.5078 127.55,13.335 C127.802,13.1621 128.111,13.0757 128.477,13.0757 C128.726,13.0757 128.964,13.1196 129.189,13.2075 C129.418,13.2954 129.621,13.4199 129.8,13.5811 C129.982,13.7393 130.127,13.9458 130.235,14.2007 C130.343,14.4526 130.398,14.731 130.398,15.0356 C130.398,15.4634 130.301,15.8369 130.108,16.1562 C129.914,16.4756 129.656,16.7158 129.334,16.877 C129.015,17.0352 128.656,17.1143 128.257,17.1143 C127.554,17.1143 127.001,16.8623 126.596,16.3584 C126.192,15.8545 125.99,15.1235 125.99,14.1655 Z M127.128,15.084 C127.128,15.4502 127.238,15.7388 127.458,15.9497 C127.677,16.1577 127.947,16.2617 128.266,16.2617 C128.58,16.2617 128.843,16.1592 129.057,15.9541 C129.271,15.749 129.378,15.459 129.378,15.084 C129.378,14.7119 129.268,14.4219 129.048,14.2139 C128.832,14.0029 128.568,13.8975 128.257,13.8975 C127.938,13.8975 127.67,14.0044 127.453,14.2183 C127.236,14.4321 127.128,14.7207 127.128,15.084 Z M132.036,16.9165 C131.916,16.8022 131.856,16.6543 131.856,16.4727 C131.856,16.291 131.914,16.1445 132.032,16.0332 C132.152,15.9219 132.3,15.8662 132.476,15.8662 C132.657,15.8662 132.808,15.9233 132.928,16.0376 C133.048,16.1489 133.108,16.2939 133.108,16.4727 C133.108,16.6543 133.048,16.8022 132.928,16.9165 C132.808,17.0278 132.657,17.0835 132.476,17.0835 C132.303,17.0835 132.156,17.0278 132.036,16.9165 Z M134.54,14.2183 L134.54,13.7876 C134.54,12.8999 134.737,12.1938 135.129,11.6694 C135.522,11.145 136.071,10.8828 136.777,10.8828 C137.483,10.8828 138.028,11.1436 138.412,11.665 C138.796,12.1865 138.988,12.894 138.988,13.7876 L138.988,14.2183 C138.988,14.7896 138.905,15.292 138.741,15.7256 C138.577,16.1562 138.325,16.4961 137.986,16.7451 C137.646,16.9941 137.237,17.1187 136.759,17.1187 C136.053,17.1187 135.507,16.8579 135.12,16.3364 C134.734,15.8149 134.54,15.1089 134.54,14.2183 Z M135.604,14.2095 C135.604,14.8628 135.706,15.3652 135.911,15.7168 C136.119,16.0654 136.404,16.2397 136.764,16.2397 C137.124,16.2397 137.408,16.064 137.616,15.7124 C137.824,15.3608 137.928,14.8599 137.928,14.2095 L137.928,13.792 C137.928,13.1416 137.824,12.6421 137.616,12.2935 C137.408,11.9419 137.124,11.7661 136.764,11.7661 C136.404,11.7661 136.119,11.9419 135.911,12.2935 C135.706,12.6421 135.604,13.1416 135.604,13.792 L135.604,14.2095 Z M140.406,15.0269 L140.406,14.1567 L142.155,14.1567 L142.155,12.3418 L143.034,12.3418 L143.034,14.1567 L144.792,14.1567 L144.792,15.0269 L143.034,15.0269 L143.034,16.9165 L142.155,16.9165 L142.155,15.0269 L140.406,15.0269 Z" id="Shape" fill="#FFFFFF" fill-rule="nonzero"></path>
                <path d="M49.1909,38.5 L54.4243,23.1704 L57.5127,23.1704 L62.7349,38.5 L59.8262,38.5 L58.5234,34.3672 L53.2339,34.3672 L51.9312,38.5 L49.1909,38.5 Z M53.8291,32.3008 L57.9395,32.3008 L55.9404,25.9219 L55.8394,25.9219 L53.8291,32.3008 Z M64.3916,38.5 L64.3916,26.6182 L66.9971,26.6182 L66.9971,28.2915 L67.0981,28.2915 C67.3227,27.7824 67.7345,27.3444 68.3335,26.9775 C68.9324,26.6107 69.6624,26.4272 70.5234,26.4272 C71.7438,26.4272 72.7396,26.7979 73.5107,27.5391 C74.2894,28.2728 74.6787,29.3097 74.6787,30.6499 L74.6787,38.5 L72.0171,38.5 L72.0171,31.481 C72.0171,29.6392 71.1972,28.7183 69.5576,28.7183 C68.7715,28.7183 68.1538,28.9616 67.7046,29.4482 C67.2628,29.9349 67.042,30.6387 67.042,31.5596 L67.042,38.5 L64.3916,38.5 Z M76.9419,33.2217 L76.9419,31.874 C76.9419,30.2194 77.3387,28.9017 78.1323,27.9209 C78.9259,26.9401 80.0452,26.4497 81.4902,26.4497 C82.3737,26.4497 83.1111,26.6257 83.7026,26.9775 C84.2941,27.3219 84.6946,27.7712 84.9043,28.3252 L85.0053,28.3252 L85.0053,22.3618 L87.6557,22.3618 L87.6557,38.5 L85.0615,38.5 L85.0615,36.6807 L84.9604,36.6807 C84.7957,37.2347 84.4026,37.7026 83.7812,38.0845 C83.1598,38.4663 82.3961,38.6572 81.4902,38.6572 C80.0527,38.6572 78.9334,38.1706 78.1323,37.1973 C77.3387,36.2165 76.9419,34.8913 76.9419,33.2217 Z M79.6484,32.9521 C79.6484,34.0602 79.8768,34.9325 80.3335,35.5688 C80.7902,36.1978 81.4565,36.5122 82.3325,36.5122 C83.1635,36.5122 83.8149,36.2052 84.2866,35.5913 C84.7657,34.9699 85.0053,34.0977 85.0053,32.9746 L85.0053,32.0874 C85.0053,31.0093 84.762,30.1595 84.2754,29.5381 C83.7962,28.9167 83.1336,28.606 82.2876,28.606 C81.4266,28.606 80.7714,28.9242 80.3222,29.5605 C79.873,30.1969 79.6484,31.0617 79.6484,32.1548 L79.6484,32.9521 Z M90.6938,38.5 L90.6938,26.6182 L93.3442,26.6182 L93.3442,28.1567 L93.4453,28.1567 C93.8945,27.0112 94.8341,26.4385 96.2641,26.4385 C96.5711,26.4385 96.8631,26.4647 97.1401,26.5171 L97.1401,28.8418 C96.9529,28.7819 96.586,28.752 96.0395,28.752 C94.2726,28.752 93.3891,29.6729 93.3891,31.5146 L93.3891,38.5 L90.6938,38.5 Z M98.1005,32.9634 L98.1005,32.1211 C98.1005,31.013 98.2914,30.036 98.6733,29.1899 C99.0626,28.3439 99.6653,27.6701 100.481,27.1685 C101.297,26.6668 102.286,26.416 103.446,26.416 C105.183,26.416 106.505,26.9326 107.411,27.9658 C108.324,28.9915 108.781,30.3729 108.781,32.1099 L108.781,32.9634 C108.781,34.7453 108.328,36.1491 107.422,37.1748 C106.516,38.193 105.191,38.7021 103.446,38.7021 C101.702,38.7021 100.373,38.193 99.4594,37.1748 C98.5535,36.1566 98.1005,34.7528 98.1005,32.9634 Z M100.762,32.896 C100.762,33.4051 100.807,33.8693 100.897,34.2886 C100.987,34.7078 101.129,35.0972 101.324,35.4565 C101.518,35.8084 101.795,36.0854 102.155,36.2876 C102.514,36.4897 102.945,36.5908 103.446,36.5908 C103.94,36.5908 104.367,36.4935 104.726,36.2988 C105.086,36.0967 105.359,35.8159 105.546,35.4565 C105.741,35.0972 105.879,34.7078 105.962,34.2886 C106.052,33.8693 106.097,33.4051 106.097,32.896 L106.097,32.2109 C106.097,31.6943 106.052,31.2264 105.962,30.8071 C105.879,30.3879 105.741,29.9985 105.546,29.6392 C105.352,29.2798 105.075,29.0028 104.715,28.8081 C104.363,28.606 103.94,28.5049 103.446,28.5049 C102.952,28.5049 102.522,28.606 102.155,28.8081 C101.795,29.0103 101.518,29.291 101.324,29.6504 C101.129,30.0023 100.987,30.3916 100.897,30.8184 C100.807,31.2376 100.762,31.7018 100.762,32.2109 L100.762,32.896 Z M111.482,24.6978 C111.19,24.4282 111.044,24.0876 111.044,23.6758 C111.044,23.264 111.19,22.9271 111.482,22.665 C111.781,22.3955 112.159,22.2607 112.616,22.2607 C113.095,22.2607 113.481,22.3955 113.773,22.665 C114.072,22.9271 114.222,23.264 114.222,23.6758 C114.222,24.0876 114.076,24.4282 113.784,24.6978 C113.492,24.9598 113.103,25.0908 112.616,25.0908 C112.159,25.0908 111.781,24.9598 111.482,24.6978 Z M111.313,38.5 L111.313,26.6182 L113.964,26.6182 L113.964,38.5 L111.313,38.5 Z M116.519,33.2217 L116.519,31.874 C116.519,30.2194 116.916,28.9017 117.709,27.9209 C118.503,26.9401 119.622,26.4497 121.067,26.4497 C121.951,26.4497 122.688,26.6257 123.28,26.9775 C123.871,27.3219 124.272,27.7712 124.481,28.3252 L124.582,28.3252 L124.582,22.3618 L127.233,22.3618 L127.233,38.5 L124.639,38.5 L124.639,36.6807 L124.537,36.6807 C124.373,37.2347 123.98,37.7026 123.358,38.0845 C122.737,38.4663 121.973,38.6572 121.067,38.6572 C119.63,38.6572 118.51,38.1706 117.709,37.1973 C116.916,36.2165 116.519,34.8913 116.519,33.2217 Z M119.225,32.9521 C119.225,34.0602 119.454,34.9325 119.911,35.5688 C120.367,36.1978 121.034,36.5122 121.91,36.5122 C122.741,36.5122 123.392,36.2052 123.864,35.5913 C124.343,34.9699 124.582,34.0977 124.582,32.9746 L124.582,32.0874 C124.582,31.0093 124.339,30.1595 123.852,29.5381 C123.373,28.9167 122.711,28.606 121.865,28.606 C121.004,28.606 120.349,28.9242 119.899,29.5605 C119.45,30.1969 119.225,31.0617 119.225,32.1548 L119.225,32.9521 Z" id="Shape" fill="#FFFFFF" fill-rule="nonzero"></path>
            </g>
        </g>
    </g>
</svg>