<svg fill="#FFF" height="512" viewBox="0 0 60 60" width="512" xmlns="http://www.w3.org/2000/svg">
    <g id="Page-1" fill="none" fill-rule="evenodd">
        <g id="040---Pie-Chart" fill="rgb(255,255,255)" fill-rule="nonzero" transform="translate(-1)"><path id="Shape" d="m33 0c-.5522847 0-1 .44771525-1 1v6c0 .55228475.4477153 1 1 1s1-.44771525 1-1v-4.981c13.5666882.53992898 24.441071 11.4143118 24.981 24.981h-24.981v-15c0-.5522847-.4477153-1-1-1s-1 .4477153-1 1v16c0 .5522847.4477153 1 1 1h27c.5522847 0 1-.4477153 1-1-.0176345-15.4566626-12.5433374-27.98236546-28-28z"/><path id="Shape" d="m29 4c-13.0451382-.00864112-24.36788037 8.9924774-27.30140255 21.7035023s3.29950617 25.7637633 15.02908165 31.4727707c11.7295755 5.7090074 25.8475717 2.5614994 34.0413209-7.589273.2363215-.2769179.3034834-.6603859.1753425-1.001137-.128141-.340751-.4313377-.5849441-.7915689-.6375256-.3602313-.0525815-.7205782.0947568-.9407736.3846626-4.5167333 5.6045592-11.1583667 9.0813687-18.337742 9.5995716-7.1793753.5182028-14.25147-1.9687583-19.526258-6.8665716l18.066-18.066h25.567c-.1206796 3.4790655-.9524268 6.8965796-2.444 10.042-.1625553.3241404-.1369014.710881.0670441 1.01071.2039454.2998291.5542218.4657596.9154139.4336439.3611922-.0321158.676697-.257245.824542-.5883539 1.7622268-3.7180682 2.6697517-7.7834788 2.656-11.898 0-.5522847-.4477153-1-1-1h-26v-26c0-.55228475-.4477153-1-1-1zm-1 27.586-5 5v-29.886c1.6406078-.38877477 3.3151781-.61685125 5-.681zm-7 7-5 5v-34.095c1.5833924-.91593965 3.2594248-1.66143886 5-2.224zm-7-27.811v34.811l-4.066 4.066c-.32-.345-.633-.7-.934-1.059v-33.178c1.4576861-1.7576238 3.1385505-3.317466 5-4.64zm-7 7.4v27.656c-5.33341641-8.449067-5.33341641-19.211933 0-27.661z"/><path id="Shape" d="m41 19.5c0-.5522847-.4477153-1-1-1s-1 .4477153-1 1c.0965423 2.2415987 1.7783513 4.0953727 4 4.409v.091c0 .5522847.4477153 1 1 1s1-.4477153 1-1v-.091c2.2216487-.3136273 3.9034577-2.1674013 4-4.409-.0965423-2.2415987-1.7783513-4.0953727-4-4.409v-4.937c1.1128409.2524624 1.9267959 1.2072317 2 2.346 0 .5522847.4477153 1 1 1s1-.4477153 1-1c-.0965423-2.2415987-1.7783513-4.09537268-4-4.409v-.091c0-.55228475-.4477153-1-1-1s-1 .44771525-1 1v.091c-2.2216487.31362732-3.9034577 2.1674013-4 4.409.0965423 2.2415987 1.7783513 4.0953727 4 4.409v4.937c-1.1128409-.2524624-1.9267959-1.2072317-2-2.346zm6 0c-.0732041 1.1387683-.8871591 2.0935376-2 2.346v-4.692c1.1128409.2524624 1.9267959 1.2072317 2 2.346zm-6-7c.0732041-1.1387683.8871591-2.0935376 2-2.346v4.692c-1.1128409-.2524624-1.9267959-1.2072317-2-2.346z"/></g>
    </g>
</svg>
