<?xml version="1.0" encoding="iso-8859-1"?>
<!-- Generator: Adobe Illustrator 19.0.0, SVG Export Plug-In . SVG Version: 6.00 Build 0)  -->
<svg version="1.1" id="Layer_1" xmlns="http://www.w3.org/2000/svg" xmlns:xlink="http://www.w3.org/1999/xlink" x="0px" y="0px"
	 viewBox="0 0 512 512" style="enable-background:new 0 0 512 512;" xml:space="preserve">
<g>
	<g>
		<path fill="#D1E6F9" d="M437.333,137.533H74.667C33.493,137.533,0,171.026,0,212.199v213.333c0,41.173,33.493,74.667,74.667,74.667h362.667
			c41.173,0,74.667-33.493,74.667-74.667V212.199C512,171.026,478.507,137.533,437.333,137.533z M490.667,425.533
			c0,29.397-23.915,53.333-53.333,53.333H74.667c-29.419,0-53.333-23.936-53.333-53.333V212.199
			c0-29.397,23.915-53.333,53.333-53.333h362.667c29.419,0,53.333,23.936,53.333,53.333V425.533z"/>
	</g>
</g>
<g>
	<g>
		<path fill="#D1E6F9" d="M416,286.866c-17.643,0-32,14.357-32,32c0,17.643,14.357,32,32,32c17.643,0,32-14.357,32-32
			C448,301.223,433.643,286.866,416,286.866z M416,329.533c-5.867,0-10.667-4.779-10.667-10.667s4.8-10.667,10.667-10.667
			c5.867,0,10.667,4.779,10.667,10.667S421.867,329.533,416,329.533z"/>
	</g>
</g>
<g>
	<g>
		<path fill="#D1E6F9" d="M501.333,244.199H416c-41.173,0-74.667,33.493-74.667,74.667c0,41.173,33.493,74.667,74.667,74.667h85.333
			c5.888,0,10.667-4.779,10.667-10.667v-128C512,248.978,507.221,244.199,501.333,244.199z M490.667,372.199H416
			c-29.419,0-53.333-23.936-53.333-53.333c0-29.397,23.915-53.333,53.333-53.333v0h74.667V372.199z"/>
	</g>
</g>
<g>
	<g>
		<path fill="#D1E6F9" d="M436.203,143.421L391.04,53.095c-9.109-18.219-24.832-31.637-44.245-37.781c-19.413-6.123-39.979-4.203-57.941,5.44
			L69.611,138.813c-5.184,2.773-7.125,9.259-4.331,14.443c2.795,5.184,9.28,7.125,14.443,4.331L299.008,39.57
			c12.8-6.912,27.541-8.299,41.365-3.904c13.867,4.373,25.088,13.973,31.595,26.987l45.163,90.325
			c1.877,3.733,5.632,5.888,9.536,5.888c1.6,0,3.221-0.363,4.757-1.131C436.693,155.09,438.827,148.69,436.203,143.421z"/>
	</g>
</g>
<g>
	<g>
		<path fill="#D1E6F9" d="M393.408,57.831c-2.816-5.205-9.301-7.125-14.464-4.352l-158.485,85.333c-5.184,2.795-7.125,9.259-4.331,14.443
			c1.92,3.584,5.589,5.611,9.387,5.611c1.707,0,3.456-0.405,5.077-1.259l158.485-85.333
			C394.261,69.479,396.203,63.015,393.408,57.831z"/>
	</g>
</g>
<g>
	<g>
		<path fill="#D1E6F9" d="M192,73.533h-74.667C52.651,73.533,0,126.162,0,190.866v21.333c0,5.888,4.779,10.667,10.667,10.667
			s10.667-4.779,10.667-10.667v-21.333c0-52.928,43.072-96,96-96H192c5.888,0,10.667-4.779,10.667-10.667S197.888,73.533,192,73.533
			z"/>
	</g>
</g>
<g>
	<g>
		<path fill="#D1E6F9" d="M394.667,73.533c-5.888,0-10.667,4.779-10.667,10.667s4.779,10.667,10.667,10.667c52.928,0,96,43.072,96,96v21.333
			c0,5.888,4.779,10.667,10.667,10.667c5.888,0,10.667-4.779,10.667-10.667v-21.333C512,126.162,459.349,73.533,394.667,73.533z"/>
	</g>
</g>
<g>
</g>
<g>
</g>
<g>
</g>
<g>
</g>
<g>
</g>
<g>
</g>
<g>
</g>
<g>
</g>
<g>
</g>
<g>
</g>
<g>
</g>
<g>
</g>
<g>
</g>
<g>
</g>
<g>
</g>
</svg>
